<svg width="23" height="23" viewBox="0 0 23 23" fill="none" xmlns="http://www.w3.org/2000/svg">
<rect x="0.33667" y="0.117188" width="22.56" height="22.56" rx="3.36" fill="#0075C9"/>
<rect x="1.57404" y="0.154358" width="20.16" height="20.16" fill="#D9D9D9" fill-opacity="0.01"/>
<path d="M8.82824 10.3484L4.94749 7.24385L4.90301 7.20089C4.37941 6.66889 4.38623 5.81316 4.91822 5.28957C5.39883 4.81655 6.09088 4.63005 6.77104 4.80303L6.91741 4.84834L12.2682 6.75854L14.5691 4.35756C15.4025 3.48763 16.7834 3.45807 17.66 4.29799L17.699 4.33653C18.5441 5.19526 18.5331 6.57653 17.6611 7.43444L15.2194 9.70073L17.0745 15.1684C17.3119 15.8681 17.1282 16.642 16.6015 17.1604C16.0695 17.684 15.2138 17.6772 14.6772 17.1316L14.6116 17.0571L11.5535 13.1035L10.2404 14.3224L10.5129 14.9213C10.7971 15.546 10.6607 16.2817 10.1716 16.763C9.64723 17.2792 8.80372 17.2724 8.28739 16.7478L7.84006 16.2929L7.72822 16.3649C7.08593 16.7781 6.2419 16.6841 5.70619 16.1398C5.17042 15.5954 5.09023 14.7498 5.51406 14.1145L5.5876 14.0043L5.13916 13.5491C4.66659 13.0689 4.62824 12.3137 5.06823 11.759L5.15417 11.665C5.60015 11.2261 6.25653 11.0812 6.87459 11.3001L7.00066 11.353L7.5957 11.6347L8.82824 10.3484Z" fill="white"/>
</svg>
