<svg width="22" height="21" viewBox="0 0 22 21" fill="none" xmlns="http://www.w3.org/2000/svg">
<path d="M11.2168 20.5C7.62305 20.5 4.3418 18.625 2.54492 15.5C0.748047 12.4141 0.748047 8.625 2.54492 5.5C4.3418 2.41406 7.62305 0.5 11.2168 0.5C14.7715 0.5 18.0527 2.41406 19.8496 5.5C21.6465 8.625 21.6465 12.4141 19.8496 15.5C18.0527 18.625 14.7715 20.5 11.2168 20.5ZM15.6309 8.66406H15.5918C15.9824 8.3125 15.9824 7.72656 15.5918 7.33594C15.2402 6.98438 14.6543 6.98438 14.3027 7.33594L9.9668 11.7109L8.13086 9.875C7.74023 9.48438 7.1543 9.48438 6.80273 9.875C6.41211 10.2266 6.41211 10.8125 6.80273 11.1641L9.30273 13.6641C9.6543 14.0547 10.2402 14.0547 10.6309 13.6641L15.6309 8.66406Z" fill="#00A886"/>
</svg>
